<?xml version="1.0" encoding="UTF-8" standalone="no"?>
<!DOCTYPE svg PUBLIC "-//W3C//DTD SVG 1.1//EN" "http://www.w3.org/Graphics/SVG/1.1/DTD/svg11.dtd">
<svg width="100%" height="100%" viewBox="0 0 148 148" version="1.1" xmlns="http://www.w3.org/2000/svg" xmlns:xlink="http://www.w3.org/1999/xlink" xml:space="preserve" xmlns:serif="http://www.serif.com/" style="fill-rule:evenodd;clip-rule:evenodd;stroke-linejoin:round;stroke-miterlimit:2;">
    <g transform="matrix(1,0,0,1,-326.08,-626.068)">
        <g transform="matrix(1.68929,0,0,1.68929,-882.903,-199.949)">
            <path d="M718.187,532.74C716.541,528.888 715.677,524.706 715.677,520.391C715.677,511.999 718.945,504.11 724.879,498.176C730.812,492.242 738.702,488.974 747.093,488.974C751.408,488.974 755.59,489.838 759.442,491.484C763.294,489.838 767.476,488.974 771.792,488.974C780.183,488.974 788.072,492.242 794.006,498.176C803.334,507.504 805.558,521.287 800.679,532.739C805.558,544.192 803.334,557.975 794.006,567.304C788.072,573.237 780.183,576.504 771.792,576.504C767.476,576.504 763.294,575.641 759.442,573.995C755.59,575.641 751.408,576.504 747.093,576.504C738.702,576.504 730.812,573.237 724.878,567.304C718.944,561.369 715.677,553.48 715.677,545.089C715.677,540.774 716.541,536.592 718.187,532.74ZM759.442,566.185C761.22,565.141 762.876,563.863 764.372,562.367L789.069,537.669C790.578,536.16 791.848,534.501 792.879,532.74C791.848,530.978 790.578,529.319 789.069,527.81L764.372,503.112C762.876,501.616 761.22,500.338 759.442,499.293C757.665,500.338 756.009,501.616 754.513,503.112L729.815,527.81C728.319,529.306 727.041,530.963 725.996,532.74C727.041,534.517 728.319,536.173 729.815,537.669L754.513,562.367C756.009,563.863 757.665,565.141 759.442,566.185Z"/>
        </g>
    </g>
</svg>
