<?xml version="1.0" encoding="UTF-8" standalone="no"?>
<!DOCTYPE svg PUBLIC "-//W3C//DTD SVG 1.1//EN" "http://www.w3.org/Graphics/SVG/1.1/DTD/svg11.dtd">
<svg width="100%" height="100%" viewBox="0 0 572 112" version="1.1" xmlns="http://www.w3.org/2000/svg" xmlns:xlink="http://www.w3.org/1999/xlink" xml:space="preserve" xmlns:serif="http://www.serif.com/" style="fill-rule:evenodd;clip-rule:evenodd;stroke-linejoin:round;stroke-miterlimit:2;">
    <g transform="matrix(1,0,0,1,-994.415,-776.003)">
        <g transform="matrix(1,0,0,1,12.9763,0)">
            <g transform="matrix(1.27947,0,0,1.27947,65.7494,150.375)">
                <path d="M718.187,532.74C716.541,528.888 715.677,524.706 715.677,520.391C715.677,511.999 718.945,504.11 724.879,498.176C730.812,492.242 738.702,488.974 747.093,488.974C751.408,488.974 755.59,489.838 759.442,491.484C763.294,489.838 767.476,488.974 771.792,488.974C780.183,488.974 788.072,492.242 794.006,498.176C803.334,507.504 805.558,521.287 800.679,532.739C805.558,544.192 803.334,557.975 794.006,567.304C788.072,573.237 780.183,576.504 771.792,576.504C767.476,576.504 763.294,575.641 759.442,573.995C755.59,575.641 751.408,576.504 747.093,576.504C738.702,576.504 730.812,573.237 724.878,567.304C718.944,561.369 715.677,553.48 715.677,545.089C715.677,540.774 716.541,536.592 718.187,532.74ZM759.442,566.185C761.22,565.141 762.876,563.863 764.372,562.367L789.069,537.669C790.578,536.16 791.848,534.501 792.879,532.74C791.848,530.978 790.578,529.319 789.069,527.81L764.372,503.112C762.876,501.616 761.22,500.338 759.442,499.293C757.665,500.338 756.009,501.616 754.513,503.112L729.815,527.81C728.319,529.306 727.041,530.963 725.996,532.74C727.041,534.517 728.319,536.173 729.815,537.669L754.513,562.367C756.009,563.863 757.665,565.141 759.442,566.185Z"/>
            </g>
            <g transform="matrix(1.07996,0,0,1.07996,247.542,244.546)">
                <g transform="matrix(1,0,0,1,-0.662507,3.21344)">
                    <path d="M802.111,508.473L811.075,508.473L811.075,535.816L839.763,535.816L839.763,508.473L848.727,508.473L848.727,573.02L839.763,573.02L839.763,543.884L811.075,543.884L811.075,573.02L802.111,573.02L802.111,508.473Z" style="fill-rule:nonzero;"/>
                </g>
                <g transform="matrix(1,0,0,1,-5.20917,0)">
                    <path d="M857.692,526.403L865.85,526.403L879.208,565.579C879.327,565.878 879.447,566.072 879.566,566.162C879.686,566.251 879.865,566.296 880.104,566.296C880.343,566.296 880.522,566.251 880.642,566.162C880.761,566.072 880.881,565.878 881.001,565.579L894.358,526.403L902.516,526.403L902.516,528.196L885.035,578.398C883.541,582.761 881.509,585.794 878.939,587.498C876.369,589.201 872.604,590.053 867.643,590.053L859.037,590.053L859.037,582.881L873.47,582.881C874.008,582.881 874.411,582.821 874.68,582.702C874.949,582.582 875.144,582.343 875.263,581.984L877.863,574.992C878.162,574.275 878.192,573.767 877.953,573.468C877.833,573.289 877.684,573.169 877.504,573.109C877.325,573.05 877.086,573.02 876.787,573.02L873.291,573.02L857.692,528.196L857.692,526.403Z" style="fill-rule:nonzero;"/>
                </g>
                <g transform="matrix(1,0,0,1,-8.63881,0)">
                    <path d="M958.546,549.711C958.546,555.09 957.455,559.632 955.274,563.338C953.092,567.043 950.268,569.807 946.802,571.63C943.336,573.453 939.63,574.364 935.686,574.364C928.813,574.364 923.673,572.183 920.266,567.82C919.967,567.402 919.639,567.193 919.28,567.193C918.862,567.193 918.653,567.432 918.653,567.91L918.653,590.053L910.584,590.053L910.584,526.403L918.653,526.403L918.653,531.513C918.653,531.991 918.862,532.23 919.28,532.23C919.639,532.23 919.967,532.021 920.266,531.602C923.673,527.24 928.813,525.058 935.686,525.058C939.63,525.058 943.336,525.97 946.802,527.792C950.268,529.615 953.092,532.379 955.274,536.085C957.455,539.79 958.546,544.332 958.546,549.711ZM950.477,549.711C950.477,544.213 948.998,539.925 946.04,536.847C943.082,533.769 939.182,532.23 934.341,532.23C929.5,532.23 925.6,533.769 922.642,536.847C919.684,539.925 918.204,544.213 918.204,549.711C918.204,555.21 919.684,559.498 922.642,562.576C925.6,565.654 929.5,567.193 934.341,567.193C939.182,567.193 943.082,565.654 946.04,562.576C948.998,559.498 950.477,555.21 950.477,549.711Z" style="fill-rule:nonzero;"/>
                </g>
                <g transform="matrix(1,0,0,1,-11.9195,0)">
                    <path d="M965.718,549.711C965.718,544.691 966.704,540.328 968.676,536.623C970.648,532.917 973.412,530.063 976.968,528.061C980.524,526.059 984.693,525.058 989.474,525.058C994.196,525.058 998.215,526.044 1001.53,528.017C1004.85,529.989 1007.33,532.603 1008.97,535.861C1010.62,539.118 1011.44,542.689 1011.44,546.574L1011.44,551.952L974.234,551.952C974.533,556.614 976.102,560.32 978.941,563.069C981.779,565.818 985.589,567.193 990.371,567.193C994.255,567.193 997.229,566.401 999.291,564.817C1001.35,563.233 1002.86,561.037 1003.82,558.228L1012.33,558.228C1011.2,562.591 1008.88,566.371 1005.39,569.568C1001.89,572.766 996.885,574.364 990.371,574.364C985.47,574.364 981.152,573.363 977.417,571.361C973.681,569.359 970.798,566.505 968.766,562.8C966.734,559.094 965.718,554.732 965.718,549.711ZM1002.47,545.229C1002.47,541.165 1001.43,537.982 999.335,535.681C997.244,533.38 993.957,532.23 989.474,532.23C985.291,532.23 981.869,533.351 979.21,535.592C976.55,537.833 974.921,541.045 974.324,545.229L1002.47,545.229Z" style="fill-rule:nonzero;"/>
                </g>
                <g transform="matrix(1,0,0,1,-17.9139,0)">
                    <path d="M1022.64,526.403L1030.71,526.403L1030.71,532.678C1030.71,533.097 1030.92,533.306 1031.34,533.306C1031.76,533.306 1032.06,533.067 1032.24,532.589C1033.25,530.317 1034.66,528.689 1036.45,527.703C1038.24,526.717 1040.72,526.224 1043.89,526.224L1047.75,526.224L1047.75,534.292L1042.63,534.292C1038.63,534.292 1035.64,535.248 1033.67,537.161C1031.7,539.073 1030.71,542.211 1030.71,546.574L1030.71,573.02L1022.64,573.02L1022.64,526.403Z" style="fill-rule:nonzero;"/>
                </g>
                <g transform="matrix(1,0,0,1,-20.8666,0)">
                    <path d="M1073.47,525.058C1077.36,525.058 1080.84,525.716 1083.92,527.03C1087,528.345 1089.43,530.228 1091.22,532.678C1093.02,535.129 1093.97,537.967 1094.09,541.195L1085.58,541.195C1085.1,535.218 1080.91,532.23 1073.03,532.23C1069.62,532.23 1066.97,532.887 1065.09,534.202C1063.21,535.517 1062.27,537.19 1062.27,539.222C1062.27,540.956 1062.91,542.211 1064.2,542.988C1065.48,543.765 1067.68,544.482 1070.79,545.139L1079.3,546.932C1083.9,547.888 1087.44,549.263 1089.92,551.056C1092.4,552.849 1093.64,555.688 1093.64,559.572C1093.64,562.441 1092.81,564.996 1091.13,567.237C1089.46,569.479 1087.12,571.227 1084.1,572.482C1081.08,573.737 1077.6,574.364 1073.65,574.364C1066.54,574.364 1061.04,572.766 1057.16,569.568C1053.27,566.371 1050.94,562.142 1050.17,556.883L1058.68,556.883C1059.82,563.756 1064.81,567.193 1073.65,567.193C1077.54,567.193 1080.5,566.49 1082.53,565.086C1084.56,563.681 1085.58,561.993 1085.58,560.021C1085.58,558.706 1085.23,557.705 1084.55,557.018C1083.86,556.33 1082.92,555.807 1081.72,555.449C1080.53,555.09 1078.52,554.612 1075.71,554.014L1067.2,552.221C1063.08,551.385 1059.88,549.98 1057.61,548.008C1055.34,546.036 1054.2,543.167 1054.2,539.402C1054.2,534.979 1055.99,531.483 1059.58,528.913C1063.16,526.343 1067.8,525.058 1073.47,525.058Z" style="fill-rule:nonzero;"/>
                </g>
                <g transform="matrix(1,0,0,1,-26.2183,0)">
                    <path d="M1102.61,559.124C1102.61,555 1104.03,551.758 1106.87,549.397C1109.71,547.037 1113.96,545.797 1119.64,545.677L1136.68,545.319L1136.68,543.436C1136.68,539.91 1135.66,537.161 1133.63,535.188C1131.6,533.216 1128.43,532.23 1124.12,532.23C1120.3,532.23 1117.4,533.067 1115.43,534.74C1113.46,536.414 1112.47,538.565 1112.47,541.195L1103.95,541.195C1104.13,538.147 1105.03,535.398 1106.64,532.947C1108.26,530.497 1110.56,528.569 1113.55,527.165C1116.54,525.76 1120.06,525.058 1124.12,525.058C1130.94,525.058 1136.08,526.702 1139.54,529.989C1143.01,533.276 1144.74,537.908 1144.74,543.884L1144.74,573.02L1136.68,573.02L1136.68,568.179C1136.68,567.82 1136.5,567.641 1136.14,567.641C1135.84,567.641 1135.54,567.82 1135.24,568.179C1132.01,572.302 1127.26,574.364 1120.99,574.364C1115.25,574.364 1110.75,572.96 1107.5,570.151C1104.24,567.342 1102.61,563.666 1102.61,559.124ZM1110.68,559.124C1110.68,561.634 1111.66,563.607 1113.64,565.041C1115.61,566.475 1118.36,567.193 1121.88,567.193C1126.49,567.193 1130.1,565.937 1132.73,563.427C1135.36,560.917 1136.68,557.242 1136.68,552.401L1136.68,552.042L1119.64,552.401C1116.6,552.46 1114.34,553.073 1112.87,554.238C1111.41,555.404 1110.68,557.032 1110.68,559.124Z" style="fill-rule:nonzero;"/>
                </g>
                <g transform="matrix(1,0,0,1,-32.3143,0)">
                    <path d="M1150.84,526.403L1159,526.403L1172.36,565.579C1172.48,565.878 1172.59,566.072 1172.71,566.162C1172.83,566.251 1173.01,566.296 1173.25,566.296C1173.49,566.296 1173.67,566.251 1173.79,566.162C1173.91,566.072 1174.03,565.878 1174.15,565.579L1187.51,526.403L1195.66,526.403L1195.66,528.196L1180.07,573.02L1166.44,573.02L1150.84,528.196L1150.84,526.403Z" style="fill-rule:nonzero;"/>
                </g>
                <g transform="matrix(1,0,0,1,-37.962,0)">
                    <path d="M1199.79,549.711C1199.79,544.691 1200.77,540.328 1202.75,536.623C1204.72,532.917 1207.48,530.063 1211.04,528.061C1214.59,526.059 1218.76,525.058 1223.54,525.058C1228.27,525.058 1232.29,526.044 1235.6,528.017C1238.92,529.989 1241.4,532.603 1243.04,535.861C1244.69,539.118 1245.51,542.689 1245.51,546.574L1245.51,551.952L1208.3,551.952C1208.6,556.614 1210.17,560.32 1213.01,563.069C1215.85,565.818 1219.66,567.193 1224.44,567.193C1228.33,567.193 1231.3,566.401 1233.36,564.817C1235.42,563.233 1236.93,561.037 1237.89,558.228L1246.4,558.228C1245.27,562.591 1242.95,566.371 1239.46,569.568C1235.96,572.766 1230.95,574.364 1224.44,574.364C1219.54,574.364 1215.22,573.363 1211.49,571.361C1207.75,569.359 1204.87,566.505 1202.84,562.8C1200.8,559.094 1199.79,554.732 1199.79,549.711ZM1236.54,545.229C1236.54,541.165 1235.5,537.982 1233.4,535.681C1231.31,533.38 1228.03,532.23 1223.54,532.23C1219.36,532.23 1215.94,533.351 1213.28,535.592C1210.62,537.833 1208.99,541.045 1208.39,545.229L1236.54,545.229Z" style="fill-rule:nonzero;"/>
                </g>
            </g>
        </g>
    </g>
</svg>
